<mxfile host="app.diagrams.net" modified="2024-03-30T04:54:22.414Z" agent="Mozilla/5.0 (Windows NT 10.0; WOW64) AppleWebKit/537.36 (KHTML, like Gecko) Chrome/86.0.4240.198 Safari/537.36" etag="Q3b1mmav91SvOkQOuese" version="24.0.3" type="github">
  <diagram name="Page-1" id="82e54ff1-d628-8f03-85c4-9753963a91cd">
    <mxGraphModel dx="1562" dy="1687" grid="1" gridSize="10" guides="1" tooltips="1" connect="1" arrows="1" fold="1" page="1" pageScale="1" pageWidth="1100" pageHeight="850" background="none" math="0" shadow="0">
      <root>
        <mxCell id="0" />
        <mxCell id="1" parent="0" />
        <mxCell id="4ec97bd9e5d20128-1" value="" style="line;strokeWidth=2;html=1;fillColor=none;fontSize=28;fontColor=#004D99;strokeColor=#004D99;" parent="1" vertex="1">
          <mxGeometry x="40" y="400" width="1000" height="10" as="geometry" />
        </mxCell>
        <mxCell id="4ec97bd9e5d20128-5" value="Stage 1" style="shape=offPageConnector;whiteSpace=wrap;html=1;fillColor=#0075E8;fontSize=15;fontColor=#FFFFFF;size=0.5093750000000015;verticalAlign=top;strokeColor=none;" parent="1" vertex="1">
          <mxGeometry x="120" y="340" width="160" height="40" as="geometry" />
        </mxCell>
        <mxCell id="4ec97bd9e5d20128-6" value="&lt;span&gt;Stage 3&lt;/span&gt;" style="shape=offPageConnector;whiteSpace=wrap;html=1;fillColor=#0075E8;fontSize=15;fontColor=#FFFFFF;size=0.5093750000000015;verticalAlign=top;strokeColor=none;" parent="1" vertex="1">
          <mxGeometry x="573" y="340" width="160" height="40" as="geometry" />
        </mxCell>
        <mxCell id="4ec97bd9e5d20128-7" value="&lt;span&gt;Stage 2&lt;/span&gt;" style="shape=offPageConnector;whiteSpace=wrap;html=1;fillColor=#0075E8;fontSize=15;fontColor=#FFFFFF;size=0.4178571428571445;flipV=1;verticalAlign=bottom;strokeColor=none;spacingBottom=4;" parent="1" vertex="1">
          <mxGeometry x="347" y="425" width="160" height="35" as="geometry" />
        </mxCell>
        <mxCell id="4ec97bd9e5d20128-8" value="&lt;span&gt;Stage 4&lt;/span&gt;" style="shape=offPageConnector;whiteSpace=wrap;html=1;fillColor=#0075E8;fontSize=15;fontColor=#FFFFFF;size=0.4178571428571445;flipV=1;verticalAlign=bottom;strokeColor=none;spacingBottom=4;" parent="1" vertex="1">
          <mxGeometry x="800" y="425" width="160" height="35" as="geometry" />
        </mxCell>
        <mxCell id="4ec97bd9e5d20128-9" value="" style="ellipse;whiteSpace=wrap;html=1;fillColor=#61BAFF;fontSize=28;fontColor=#004D99;strokeWidth=3;strokeColor=#004D99;" parent="1" vertex="1">
          <mxGeometry x="190" y="395" width="20" height="20" as="geometry" />
        </mxCell>
        <mxCell id="4ec97bd9e5d20128-10" value="" style="ellipse;whiteSpace=wrap;html=1;fillColor=#61BAFF;fontSize=28;fontColor=#004D99;strokeWidth=3;strokeColor=#004D99;" parent="1" vertex="1">
          <mxGeometry x="417" y="395" width="20" height="20" as="geometry" />
        </mxCell>
        <mxCell id="4ec97bd9e5d20128-11" value="" style="ellipse;whiteSpace=wrap;html=1;fillColor=#61BAFF;fontSize=28;fontColor=#004D99;strokeWidth=3;strokeColor=#004D99;" parent="1" vertex="1">
          <mxGeometry x="643" y="395" width="20" height="20" as="geometry" />
        </mxCell>
        <mxCell id="4ec97bd9e5d20128-13" value="" style="ellipse;whiteSpace=wrap;html=1;fillColor=#61BAFF;fontSize=28;fontColor=#004D99;strokeWidth=3;strokeColor=#004D99;" parent="1" vertex="1">
          <mxGeometry x="870" y="395" width="20" height="20" as="geometry" />
        </mxCell>
        <mxCell id="4ec97bd9e5d20128-14" value="&lt;h1&gt;Heading&lt;/h1&gt;&lt;p&gt;Lorem ipsum dolor sit amet, consectetur adipisicing elit, sed do eiusmod tempor incididunt ut labore et dolore magna aliqua.&lt;/p&gt;" style="text;html=1;spacing=5;spacingTop=-20;whiteSpace=wrap;overflow=hidden;strokeColor=none;strokeWidth=3;fillColor=#E6E6E6;fontSize=13;fontColor=#000000;align=center;rounded=1;" parent="1" vertex="1">
          <mxGeometry x="93" y="430" width="215" height="120" as="geometry" />
        </mxCell>
        <mxCell id="4ec97bd9e5d20128-16" value="&lt;h1&gt;Heading&lt;/h1&gt;&lt;p&gt;Lorem ipsum dolor sit amet, consectetur adipisicing elit, sed do eiusmod tempor incididunt ut labore et dolore magna aliqua.&lt;/p&gt;" style="text;html=1;spacing=5;spacingTop=-20;whiteSpace=wrap;overflow=hidden;strokeColor=none;strokeWidth=3;fillColor=#E6E6E6;fontSize=13;fontColor=#000000;align=center;rounded=1;" parent="1" vertex="1">
          <mxGeometry x="319" y="250" width="215" height="120" as="geometry" />
        </mxCell>
        <mxCell id="4ec97bd9e5d20128-17" value="&lt;h1&gt;Heading&lt;/h1&gt;&lt;p&gt;Lorem ipsum dolor sit amet, consectetur adipisicing elit, sed do eiusmod tempor incididunt ut labore et dolore magna aliqua.&lt;/p&gt;" style="text;html=1;spacing=5;spacingTop=-20;whiteSpace=wrap;overflow=hidden;strokeColor=none;strokeWidth=3;fillColor=#E6E6E6;fontSize=13;fontColor=#000000;align=center;rounded=1;" parent="1" vertex="1">
          <mxGeometry x="545" y="430" width="215" height="120" as="geometry" />
        </mxCell>
        <mxCell id="4ec97bd9e5d20128-18" value="&lt;h1&gt;Heading&lt;/h1&gt;&lt;p&gt;Lorem ipsum dolor sit amet, consectetur adipisicing elit, sed do eiusmod tempor incididunt ut labore et dolore magna aliqua.&lt;/p&gt;" style="text;html=1;spacing=5;spacingTop=-20;whiteSpace=wrap;overflow=hidden;strokeColor=none;strokeWidth=3;fillColor=#E6E6E6;fontSize=13;fontColor=#000000;align=center;rounded=1;" parent="1" vertex="1">
          <mxGeometry x="773" y="250" width="215" height="120" as="geometry" />
        </mxCell>
        <mxCell id="qtW2Ptqo8B_Tq6HGohEx-1" value="&lt;p style=&quot;margin: 0pt; text-indent: 0pt; padding: 0pt; background: rgb(253, 253, 254); font-size: 20px;&quot; class=&quot;p&quot;&gt;&lt;font style=&quot;font-size: 20px;&quot;&gt;&lt;b style=&quot;&quot;&gt;&lt;span style=&quot;font-family: &amp;quot;Segoe UI&amp;quot;; color: rgb(255, 0, 0); letter-spacing: 0pt; background-image: initial; background-position: initial; background-size: initial; background-repeat: initial; background-attachment: initial; background-origin: initial; background-clip: initial;&quot;&gt;&lt;font style=&quot;font-size: 20px;&quot; face=&quot;Segoe UI&quot;&gt;&lt;span style=&quot;white-space: pre;&quot;&gt;&#x9;&lt;/span&gt;迷茫&lt;/font&gt;&lt;/span&gt;&lt;/b&gt;&lt;span style=&quot;font-family: &amp;quot;Segoe UI&amp;quot;; color: rgb(5, 7, 59); letter-spacing: 0pt; background-image: initial; background-position: initial; background-size: initial; background-repeat: initial; background-attachment: initial; background-origin: initial; background-clip: initial;&quot;&gt;&lt;font style=&quot;font-size: 20px;&quot; face=&quot;Segoe UI&quot;&gt;，是一个形容词，用来描述一个人在&lt;/font&gt;&lt;/span&gt;&lt;b style=&quot;&quot;&gt;&lt;i&gt;&lt;span style=&quot;font-family: &amp;quot;Segoe UI&amp;quot;; color: rgb(0, 176, 80); letter-spacing: 0pt; background-image: initial; background-position: initial; background-size: initial; background-repeat: initial; background-attachment: initial; background-origin: initial; background-clip: initial;&quot;&gt;&lt;font style=&quot;font-size: 20px;&quot; face=&quot;Segoe UI&quot;&gt;面对某种情况或选择时，感到困惑、不知所措或没有明确的方向感&lt;/font&gt;&lt;/span&gt;&lt;/i&gt;&lt;/b&gt;&lt;span style=&quot;font-family: &amp;quot;Segoe UI&amp;quot;; color: rgb(5, 7, 59); letter-spacing: 0pt; background-image: initial; background-position: initial; background-size: initial; background-repeat: initial; background-attachment: initial; background-origin: initial; background-clip: initial;&quot;&gt;&lt;font style=&quot;font-size: 20px;&quot; face=&quot;Segoe UI&quot;&gt;。这种状态通常源于对&lt;/font&gt;&lt;/span&gt;&lt;b style=&quot;&quot;&gt;&lt;span style=&quot;font-family: &amp;quot;Segoe UI&amp;quot;; color: rgb(112, 48, 160); letter-spacing: 0pt; background-image: initial; background-position: initial; background-size: initial; background-repeat: initial; background-attachment: initial; background-origin: initial; background-clip: initial;&quot;&gt;&lt;font style=&quot;font-size: 20px;&quot; face=&quot;Segoe UI&quot;&gt;未知或复杂事物的理解不足&lt;/font&gt;&lt;/span&gt;&lt;/b&gt;&lt;span style=&quot;font-family: &amp;quot;Segoe UI&amp;quot;; color: rgb(5, 7, 59); letter-spacing: 0pt; background-image: initial; background-position: initial; background-size: initial; background-repeat: initial; background-attachment: initial; background-origin: initial; background-clip: initial;&quot;&gt;&lt;font style=&quot;font-size: 20px;&quot; face=&quot;Segoe UI&quot;&gt;，或者是&lt;/font&gt;&lt;/span&gt;&lt;b style=&quot;&quot;&gt;&lt;span style=&quot;font-family: &amp;quot;Segoe UI&amp;quot;; color: rgb(112, 48, 160); letter-spacing: 0pt; background-image: initial; background-position: initial; background-size: initial; background-repeat: initial; background-attachment: initial; background-origin: initial; background-clip: initial;&quot;&gt;&lt;font style=&quot;font-size: 20px;&quot; face=&quot;Segoe UI&quot;&gt;因为缺乏明确的目标和计划&lt;/font&gt;&lt;/span&gt;&lt;/b&gt;&lt;span style=&quot;font-family: &amp;quot;Segoe UI&amp;quot;; color: rgb(5, 7, 59); letter-spacing: 0pt; background-image: initial; background-position: initial; background-size: initial; background-repeat: initial; background-attachment: initial; background-origin: initial; background-clip: initial;&quot;&gt;&lt;font style=&quot;font-size: 20px;&quot; face=&quot;Segoe UI&quot;&gt;。&lt;/font&gt;&lt;/span&gt;&lt;span style=&quot;font-family: &amp;quot;Segoe UI&amp;quot;; color: rgb(5, 7, 59); letter-spacing: 0pt;&quot;&gt;&lt;/span&gt;&lt;/font&gt;&lt;/p&gt;&lt;p style=&quot;margin: 8.4pt 0pt 0pt; text-indent: 0pt; padding: 0pt; background: rgb(253, 253, 254); font-size: 20px;&quot; class=&quot;p&quot;&gt;&lt;font style=&quot;font-size: 20px;&quot;&gt;&lt;span style=&quot;font-family: &amp;quot;Segoe UI&amp;quot;; color: rgb(5, 7, 59); letter-spacing: 0pt; background-image: initial; background-position: initial; background-size: initial; background-repeat: initial; background-attachment: initial; background-origin: initial; background-clip: initial;&quot;&gt;&lt;font style=&quot;font-size: 20px;&quot; face=&quot;Segoe UI&quot;&gt;&lt;span style=&quot;white-space: pre;&quot;&gt;&#x9;&lt;/span&gt;具体来说，&lt;/font&gt;“迷”通常指&lt;/span&gt;&lt;b&gt;&lt;span style=&quot;font-family: &amp;quot;Segoe UI&amp;quot;; letter-spacing: 0pt; background-image: initial; background-position: initial; background-size: initial; background-repeat: initial; background-attachment: initial; background-origin: initial; background-clip: initial;&quot;&gt;&lt;font style=&quot;font-size: 20px;&quot; face=&quot;Segoe UI&quot;&gt;迷失方向&lt;/font&gt;&lt;/span&gt;&lt;/b&gt;&lt;span style=&quot;font-family: &amp;quot;Segoe UI&amp;quot;; color: rgb(5, 7, 59); letter-spacing: 0pt; background-image: initial; background-position: initial; background-size: initial; background-repeat: initial; background-attachment: initial; background-origin: initial; background-clip: initial;&quot;&gt;&lt;font style=&quot;font-size: 20px;&quot; face=&quot;Segoe UI&quot;&gt;，不知道应该往哪里走；&lt;/font&gt;“茫”则更多地表达了一种&lt;/span&gt;&lt;b&gt;&lt;span style=&quot;font-family: &amp;quot;Segoe UI&amp;quot;; color: rgb(5, 7, 59); letter-spacing: 0pt; background-image: initial; background-position: initial; background-size: initial; background-repeat: initial; background-attachment: initial; background-origin: initial; background-clip: initial;&quot;&gt;&lt;font style=&quot;font-size: 20px;&quot; face=&quot;Segoe UI&quot;&gt;模糊不清、看不真切的感觉&lt;/font&gt;&lt;/span&gt;&lt;/b&gt;&lt;span style=&quot;font-family: &amp;quot;Segoe UI&amp;quot;; color: rgb(5, 7, 59); letter-spacing: 0pt; background-image: initial; background-position: initial; background-size: initial; background-repeat: initial; background-attachment: initial; background-origin: initial; background-clip: initial;&quot;&gt;&lt;font style=&quot;font-size: 20px;&quot; face=&quot;Segoe UI&quot;&gt;。当这两个字结合在一起，就形成了&lt;/font&gt;“迷茫”这个词语，它表达了人们在&lt;/span&gt;&lt;b&gt;&lt;span style=&quot;font-family: &amp;quot;Segoe UI&amp;quot;; letter-spacing: 0pt; background-image: initial; background-position: initial; background-size: initial; background-repeat: initial; background-attachment: initial; background-origin: initial; background-clip: initial;&quot;&gt;&lt;font style=&quot;font-size: 20px;&quot; face=&quot;Segoe UI&quot;&gt;面临选择或困境时&lt;/font&gt;&lt;/span&gt;&lt;/b&gt;&lt;span style=&quot;font-family: &amp;quot;Segoe UI&amp;quot;; color: rgb(5, 7, 59); letter-spacing: 0pt; background-image: initial; background-position: initial; background-size: initial; background-repeat: initial; background-attachment: initial; background-origin: initial; background-clip: initial;&quot;&gt;&lt;font style=&quot;font-size: 20px;&quot; face=&quot;Segoe UI&quot;&gt;，那种&lt;/font&gt;&lt;/span&gt;&lt;b&gt;&lt;span style=&quot;font-family: &amp;quot;Segoe UI&amp;quot;; letter-spacing: 0pt; background-image: initial; background-position: initial; background-size: initial; background-repeat: initial; background-attachment: initial; background-origin: initial; background-clip: initial;&quot;&gt;&lt;font style=&quot;font-size: 20px;&quot; face=&quot;Segoe UI&quot;&gt;既迷失方向又看不清前路&lt;/font&gt;&lt;/span&gt;&lt;/b&gt;&lt;span style=&quot;font-family: &amp;quot;Segoe UI&amp;quot;; color: rgb(5, 7, 59); letter-spacing: 0pt; background-image: initial; background-position: initial; background-size: initial; background-repeat: initial; background-attachment: initial; background-origin: initial; background-clip: initial;&quot;&gt;&lt;font style=&quot;font-size: 20px;&quot; face=&quot;Segoe UI&quot;&gt;的&lt;/font&gt;&lt;/span&gt;&lt;b&gt;&lt;span style=&quot;font-family: &amp;quot;Segoe UI&amp;quot;; color: rgb(255, 0, 0); letter-spacing: 0pt; background-image: initial; background-position: initial; background-size: initial; background-repeat: initial; background-attachment: initial; background-origin: initial; background-clip: initial;&quot;&gt;&lt;font style=&quot;font-size: 20px;&quot; face=&quot;Segoe UI&quot;&gt;复杂情感&lt;/font&gt;&lt;/span&gt;&lt;/b&gt;&lt;span style=&quot;font-family: &amp;quot;Segoe UI&amp;quot;; color: rgb(5, 7, 59); letter-spacing: 0pt; background-image: initial; background-position: initial; background-size: initial; background-repeat: initial; background-attachment: initial; background-origin: initial; background-clip: initial;&quot;&gt;&lt;font style=&quot;font-size: 20px;&quot; face=&quot;Segoe UI&quot;&gt;。&lt;/font&gt;&lt;/span&gt;&lt;span style=&quot;font-family: &amp;quot;Segoe UI&amp;quot;; color: rgb(5, 7, 59); letter-spacing: 0pt;&quot;&gt;&lt;/span&gt;&lt;/font&gt;&lt;/p&gt;&lt;p style=&quot;font-size: 20px;&quot; class=&quot;MsoNormal&quot;&gt;&lt;span style=&quot;font-family: &amp;quot;Segoe UI&amp;quot;; color: rgb(5, 7, 59); letter-spacing: 0pt; background: rgb(253, 253, 254);&quot;&gt;&lt;font style=&quot;font-size: 20px;&quot; face=&quot;Segoe UI&quot;&gt;&lt;span style=&quot;white-space: pre;&quot;&gt;&#x9;&lt;/span&gt;例如，一个刚毕业的学生可能会对未来感到迷茫，因为他们不确定应该选择哪种职业、去哪个城市或者追求什么样的生活。在这种情况下，他们可能会感到困惑、焦虑，甚至有点无助。&lt;/font&gt;&lt;/span&gt;&lt;/p&gt;" style="shape=note;whiteSpace=wrap;html=1;backgroundOutline=1;darkOpacity=0.05;align=left;" vertex="1" parent="1">
          <mxGeometry x="80" y="-490" width="400" height="550" as="geometry" />
        </mxCell>
      </root>
    </mxGraphModel>
  </diagram>
</mxfile>
